<?xml version="1.0" standalone="no"?>
<!DOCTYPE svg PUBLIC "-//W3C//DTD SVG 20010904//EN"
 "http://www.w3.org/TR/2001/REC-SVG-20010904/DTD/svg10.dtd">
<svg version="1.0" xmlns="http://www.w3.org/2000/svg"
 width="417.000000pt" height="417.000000pt" viewBox="0 0 417.000000 417.000000"
 preserveAspectRatio="xMidYMid meet">
<g transform="translate(0.000000,417.000000) scale(0.100000,-0.100000)"
fill="#000000" stroke="none">
<path d="M1075 3491 c-231 -45 -419 -148 -580 -319 -186 -198 -283 -447 -283
-727 0 -342 174 -679 447 -864 103 -70 263 -141 353 -156 18 -3 51 -11 73 -16
48 -13 237 -16 318 -6 80 11 218 57 316 107 136 68 264 155 481 327 58 46 131
104 162 129 323 257 546 315 772 202 194 -97 301 -328 255 -550 -39 -187 -202
-349 -390 -387 -39 -8 -309 -12 -898 -12 l-841 -1 -1 -26 c-4 -122 -1 -511 3
-518 7 -11 1732 -11 1788 0 19 3 49 9 65 12 112 21 324 113 390 170 16 13 31
24 35 24 4 0 36 28 73 62 292 278 396 625 312 1042 -12 58 -56 170 -96 245
-153 285 -436 486 -757 538 -59 10 -295 9 -342 -1 -170 -35 -359 -119 -535
-237 -60 -41 -207 -150 -325 -242 -259 -201 -225 -176 -285 -215 -76 -51 -193
-104 -254 -117 -43 -9 -76 -8 -140 1 -247 36 -421 237 -423 492 -3 236 165
444 397 495 47 10 239 13 873 12 l812 0 0 278 0 277 -842 -1 c-753 -1 -853 -3
-933 -18z"/>
</g>
</svg>
